PathFileType	4	(X/Y/Z)	T1_P2_Vision_NoMovement_1_0-732.trc
DataRate	CameraRate	NumFrames	NumMarkers	Units	OrigDataRate	OrigDataStartFrame	OrigNumFrames
60	60	4	27	m	60	366	732
Frame#	Time	RHip			RKnee			RAnkle			RBigToe			RSmallToe			RHeel			LHip			LKnee			LAnkle			LBigToe			LSmallToe			LHeel			Neck			Head			Nose			RShoulder			RElbow			RWrist			RThumb			RIndex			RPinky			LShoulder			LElbow			LWrist			LThumb			LIndex			LPinky		
		X1	Y1	Z1	X2	Y2	Z2	X3	Y3	Z3	X4	Y4	Z4	X5	Y5	Z5	X6	Y6	Z6	X7	Y7	Z7	X8	Y8	Z8	X9	Y9	Z9	X10	Y10	Z10	X11	Y11	Z11	X12	Y12	Z12	X13	Y13	Z13	X14	Y14	Z14	X15	Y15	Z15	X16	Y16	Z16	X17	Y17	Z17	X18	Y18	Z18	X19	Y19	Z19	X20	Y20	Z20	X21	Y21	Z21	X22	Y22	Z22	X23	Y23	Z23	X24	Y24	Z24	X25	Y25	Z25	X26	Y26	Z26	X27	Y27	Z27
367	6.116666666666666	444.6064911722777	3680.3634371182197	656.7682003620669	825.253719737195	3707.879262071599	650.5224298213622	1212.7503382680172	3734.105796894601	676.5669984974106	1290.784725002536	3631.577072104718	650.9452027651546	1286.6533431174298	3691.6152899615186	607.7821388504389	1283.2115761985165	3815.5034599324463	746.2827053347431	452.3696500267461	3601.1594909351475	854.6450784518338	843.155939058153	3613.592201091813	859.0580416214298	1240.192399981861	3694.8330241546932	869.8695498094453	1310.6832630491567	3552.9656361952534	809.0317606086161	1284.9603582484237	3537.9010096917063	846.2413503314577	1258.7576651046109	3706.472309980459	857.0749590918958	-124.60544859415597	3588.3923031868717	765.8064464970103	-378.5598508276657	3524.9505881582854	747.3577012659111	-241.34796648350337	3443.3980915860293	722.0911706976312	-45.33682170809881	3704.849337233538	633.364888570771	195.9259452160943	3667.2182149724995	542.4833505959626	353.905572882252	3533.0255063034124	628.9674645206169	427.4230293977681	3456.6093220242615	709.1042248766474	454.3478378521078	3466.8802576627577	712.1738395404712	478.0127040531455	3453.120515310252	671.2219665203356	-28.53116580064428	3512.8411538914793	920.5929309171598	230.07074849260147	3490.5391473258815	921.2444369354258	349.9473316586175	3427.2602727694725	702.3863418559272	397.2460101374217	3426.9754252966823	611.694784219127	441.1024073466366	3439.2767960789106	607.6549828902721	466.6207139452094	3451.4006036887445	672.287727666873
368	6.133333333333334	443.07114636792267	3681.154365014986	656.4018957805484	823.5828486318686	3703.0358676856713	650.0144939264871	1210.5888513748655	3732.6757078220594	676.7750606001446	1291.6621939679692	3634.0035524368586	651.7043196007286	1286.0082119656129	3691.637619803351	607.7240695656025	1282.5537228212868	3815.1256133011384	746.2746329921318	452.2618843847992	3602.7169491380564	854.0833100925324	844.2617799574207	3614.7968168194475	858.8015832563235	1238.5748785746955	3691.717424324182	867.6437617661418	1310.9473856885918	3557.0754784799938	810.3960339534078	1283.6868149194136	3537.1364287613173	844.6087628744983	1258.1109111150022	3706.116448868203	856.917743325981	-125.17406732788193	3587.9169790740175	765.5224064884474	-382.11675204466553	3525.584965225185	747.7071817668331	-241.4965978841085	3443.000903349699	722.3466140646669	-45.37847575319501	3704.870948227354	633.3620977239941	195.9242461247699	3667.8051122927536	541.4951754571423	352.44536991811407	3532.055463072326	629.2889817208207	426.87542421192734	3457.9546214262564	709.8311943546171	453.12694373140727	3466.648773016974	712.1072712080497	476.1787559285924	3452.0369157565283	670.7476731564552	-28.50676264211294	3512.7566424701427	920.5384022927313	229.30325585281636	3491.122168505676	921.718394016369	349.99504062937854	3427.8427255927877	702.5156180367397	394.33047041523315	3418.873800561221	609.4312346301288	440.1122832615442	3435.7060791988015	606.5982018412064	466.1869045145079	3451.1537798830855	671.743692566796
369	6.15	441.768050736613	3681.183103285598	655.0537046806995	822.5460390587614	3697.927135594935	649.3884578671714	1209.2268783809202	3732.174277753274	676.5598475625352	1292.8074141868858	3637.088051075909	652.6107856395134	1285.776776331024	3691.613550066345	607.655241893928	1283.0903577842778	3815.7653224932624	746.491671011835	452.01663073152446	3604.0290372816658	854.0960525876002	845.879257170609	3613.5242696365376	857.8880875568839	1236.998166039199	3685.245953750563	862.6061419148635	1309.2306239745571	3555.5491645977895	809.8737817038176	1283.3995422276425	3535.870729117459	844.0065252952853	1258.7535582121723	3706.539239793346	856.9820581740396	-126.4245975783068	3586.8654200423066	765.0929321308192	-384.257399050303	3526.7014120813587	748.1814927737048	-241.48433937283707	3442.620894788887	722.8612437072601	-45.34298480334002	3704.917496356673	633.3778447622844	195.9235334594904	3668.136818244784	541.034987607412	350.81053564873685	3531.454508689914	629.5630521904436	427.48018261878616	3463.0475646693876	711.3491482664326	452.32913413446914	3465.788143113835	711.6734706439734	475.33013945391247	3451.6397472913322	670.6146342575842	-28.442234350596017	3512.7181281391936	920.5229715162238	228.60833381005796	3491.910928914152	922.2596706725412	350.1084724266995	3428.9190416854053	702.9604551859496	392.02693944097695	3412.7271811465625	607.6817634069837	438.56968141034076	3433.104996890418	605.7134011191151	465.2493849713215	3450.7385917163156	671.1255014451638
370	6.166666666666667	441.217688277633	3681.4841110113935	653.3779994463279	823.7316215472233	3695.64766183723	649.0686318414225	1209.6330834325072	3732.817095247318	676.3957180015218	1293.0856816933444	3637.8043863529883	652.5736025374827	1285.7133621957473	3691.52925239624	607.545030550225	1284.3793782663602	3816.909559239165	746.7953845069437	451.80084606632477	3604.5919899190803	854.2985797760231	847.6226569608117	3612.924172834253	856.7268503311792	1236.2227086013622	3678.285230148141	856.8537770046422	1307.0357054021138	3549.4850303824974	807.8251044924116	1283.6670038259088	3534.7591931500565	844.8821826212084	1260.038660637227	3707.3072333022305	857.1659072949417	-127.85739257590774	3585.3812430353264	764.9503754210193	-384.4665204899125	3525.206871041435	747.8161349674767	-241.44006421350176	3442.4129506313884	723.236472388881	-45.38740390995283	3704.9332910123303	633.3877787111732	195.9104327145994	3668.2415078220947	541.0043815358902	349.65514500438144	3530.989803932657	629.4737191551646	429.0193594782005	3470.1532722936654	713.7770216677509	451.9030537538188	3464.8559859504944	711.167383501268	475.22273350927895	3451.6233365154308	670.6550709790915	-28.517811273893415	3512.814821942422	920.5873452905512	227.87135689195262	3492.7116047743293	922.7718986318044	350.15783042681886	3429.4950877312463	703.2023939709215	390.55559734064116	3409.9061786072257	606.8474710511647	436.7546960185021	3431.8260979769666	605.1652358550176	464.1219638476653	3450.6151704445556	671.8993221367477
